<svg width="48" height="48" viewBox="0 0 48 48" fill="none" xmlns="http://www.w3.org/2000/svg">
<rect width="48" height="48" rx="24" fill="url(#paint0_linear_0_72)"/>
<path d="M24 32.3333C22.8666 32.3333 21.7833 32.1167 20.75 31.6833C19.7611 31.2611 18.8805 30.6639 18.1083 29.8917C17.3361 29.1195 16.7388 28.2389 16.3166 27.25C15.8833 26.2167 15.6666 25.1333 15.6666 24C15.6666 22.8667 15.8833 21.7833 16.3166 20.75C16.7388 19.7611 17.3361 18.8806 18.1083 18.1083C18.8805 17.3361 19.7611 16.7389 20.75 16.3167C21.7833 15.8833 22.8666 15.6667 24 15.6667C25.1333 15.6667 26.2166 15.8833 27.25 16.3167C28.2388 16.7389 29.1194 17.3361 29.8916 18.1083C30.6638 18.8806 31.2611 19.7611 31.6833 20.75C32.1166 21.7833 32.3333 22.8667 32.3333 24C32.3333 25.1333 32.1166 26.2167 31.6833 27.25C31.2611 28.2389 30.6638 29.1195 29.8916 29.8917C29.1194 30.6639 28.2388 31.2611 27.25 31.6833C26.2166 32.1167 25.1333 32.3333 24 32.3333ZM24 30.6667C25.2111 30.6667 26.3333 30.3611 27.3666 29.75C28.3666 29.1611 29.1611 28.3667 29.75 27.3667C30.3611 26.3333 30.6666 25.2111 30.6666 24C30.6666 22.7889 30.3611 21.6667 29.75 20.6333C29.1611 19.6333 28.3666 18.8389 27.3666 18.25C26.3333 17.6389 25.2111 17.3333 24 17.3333C22.7888 17.3333 21.6666 17.6389 20.6333 18.25C19.6333 18.8389 18.8388 19.6333 18.25 20.6333C17.6388 21.6667 17.3333 22.7889 17.3333 24C17.3333 25.2111 17.6388 26.3333 18.25 27.3667C18.8388 28.3667 19.6333 29.1611 20.6333 29.75C21.6666 30.3611 22.7888 30.6667 24 30.6667ZM24 19.8833L28.1166 24L24 28.1167L19.8833 24L24 19.8833ZM24 22.2333L22.2333 24L24 25.7667L25.7666 24L24 22.2333Z" fill="black"/>
<defs>
<linearGradient id="paint0_linear_0_72" x1="0" y1="24" x2="48" y2="24" gradientUnits="userSpaceOnUse">
<stop stop-color="#BF953F"/>
<stop offset="0.25" stop-color="#FCF6BA"/>
<stop offset="0.5" stop-color="#B38728"/>
<stop offset="0.75" stop-color="#FBF5B7"/>
<stop offset="1" stop-color="#AA771C"/>
</linearGradient>
</defs>
</svg>
