<svg width="32" height="24" viewBox="0 0 32 24" fill="none" xmlns="http://www.w3.org/2000/svg">
<path d="M15.3867 14.3467L16.1867 14.8267C16.2667 14.88 16.3178 14.9511 16.34 15.04C16.3622 15.1289 16.3511 15.2133 16.3067 15.2933C16.28 15.3378 16.24 15.3733 16.1867 15.4L10.3467 18.9067C10.24 18.9689 10.1244 19 10 19C9.87556 19 9.76 18.9689 9.65334 18.9067L3.81334 15.4C3.73334 15.3556 3.68222 15.2889 3.66 15.2C3.63778 15.1111 3.64889 15.0267 3.69334 14.9467C3.72 14.9022 3.76 14.8622 3.81334 14.8267L4.61334 14.3467L10 17.5867L15.3867 14.3467ZM15.3867 11.2133L16.1867 11.6933C16.2667 11.7467 16.3178 11.8178 16.34 11.9067C16.3622 11.9956 16.3511 12.08 16.3067 12.16C16.28 12.2044 16.24 12.24 16.1867 12.2667L10 15.9867L3.81334 12.2667C3.73334 12.2222 3.68222 12.1556 3.66 12.0667C3.63778 11.9778 3.64889 11.8933 3.69334 11.8133C3.72 11.7689 3.76 11.7289 3.81334 11.6933L4.61334 11.2133L10 14.4533L15.3867 11.2133ZM10.3467 5.09333L16.1867 8.6C16.2667 8.64444 16.3178 8.71111 16.34 8.8C16.3622 8.88889 16.3511 8.97333 16.3067 9.05333C16.28 9.09778 16.24 9.13778 16.1867 9.17333L10 12.88L3.81334 9.17333C3.73334 9.12 3.68222 9.04889 3.66 8.96C3.63778 8.87111 3.64889 8.78667 3.69334 8.70667C3.72 8.66222 3.76 8.62667 3.81334 8.6L9.65334 5.09333C9.76 5.03111 9.87556 5 10 5C10.1244 5 10.24 5.03111 10.3467 5.09333ZM10 6.44L5.92 8.88L10 11.3333L14.08 8.88L10 6.44Z" fill="#9CA3AF"/>
</svg>
