<svg width="32" height="24" viewBox="0 0 32 24" fill="none" xmlns="http://www.w3.org/2000/svg">
<path d="M11.3333 18C11.1467 18 10.9889 17.9356 10.86 17.8067C10.7311 17.6778 10.6667 17.52 10.6667 17.3333V12C10.6667 11.8133 10.7311 11.6556 10.86 11.5267C10.9889 11.3978 11.1467 11.3333 11.3333 11.3333H15.3333C15.52 11.3333 15.6778 11.3978 15.8067 11.5267C15.9356 11.6556 16 11.8133 16 12V17.3333C16 17.52 15.9356 17.6778 15.8067 17.8067C15.6778 17.9356 15.52 18 15.3333 18H11.3333ZM4.66667 12.6667C4.48 12.6667 4.32222 12.6022 4.19333 12.4733C4.06444 12.3444 4 12.1867 4 12V6.66667C4 6.48 4.06444 6.32222 4.19333 6.19333C4.32222 6.06444 4.48 6 4.66667 6H8.66667C8.85333 6 9.01111 6.06444 9.14 6.19333C9.26889 6.32222 9.33333 6.48 9.33333 6.66667V12C9.33333 12.1867 9.26889 12.3444 9.14 12.4733C9.01111 12.6022 8.85333 12.6667 8.66667 12.6667H4.66667ZM8 11.3333V7.33333H5.33333V11.3333H8ZM4.66667 18C4.48 18 4.32222 17.9356 4.19333 17.8067C4.06444 17.6778 4 17.52 4 17.3333V14.6667C4 14.48 4.06444 14.3222 4.19333 14.1933C4.32222 14.0644 4.48 14 4.66667 14H8.66667C8.85333 14 9.01111 14.0644 9.14 14.1933C9.26889 14.3222 9.33333 14.48 9.33333 14.6667V17.3333C9.33333 17.52 9.26889 17.6778 9.14 17.8067C9.01111 17.9356 8.85333 18 8.66667 18H4.66667ZM5.33333 16.6667H8V15.3333H5.33333V16.6667ZM12 16.6667H14.6667V12.6667H12V16.6667ZM10.6667 6.66667C10.6667 6.48 10.7311 6.32222 10.86 6.19333C10.9889 6.06444 11.1467 6 11.3333 6H15.3333C15.52 6 15.6778 6.06444 15.8067 6.19333C15.9356 6.32222 16 6.48 16 6.66667V9.33333C16 9.52 15.9356 9.67778 15.8067 9.80667C15.6778 9.93556 15.52 10 15.3333 10H11.3333C11.1467 10 10.9889 9.93556 10.86 9.80667C10.7311 9.67778 10.6667 9.52 10.6667 9.33333V6.66667ZM12 7.33333V8.66667H14.6667V7.33333H12Z" fill="#FFB006"/>
</svg>
