<svg width="18" height="15" viewBox="0 0 18 15" fill="none" xmlns="http://www.w3.org/2000/svg">
<path d="M16.6667 3.33333H17.5V11.6667H16.6667V14.1667C16.6667 14.4 16.5861 14.5972 16.425 14.7583C16.2639 14.9194 16.0667 15 15.8333 15H0.833333C0.6 15 0.402778 14.9194 0.241667 14.7583C0.0805556 14.5972 0 14.4 0 14.1667V0.833333C0 0.599999 0.0805556 0.402777 0.241667 0.241666C0.402778 0.080555 0.6 -9.53674e-07 0.833333 -9.53674e-07H15.8333C16.0667 -9.53674e-07 16.2639 0.080555 16.425 0.241666C16.5861 0.402777 16.6667 0.599999 16.6667 0.833333V3.33333ZM15 11.6667H10C9.24444 11.6667 8.54722 11.4806 7.90833 11.1083C7.26944 10.7361 6.76389 10.2306 6.39167 9.59167C6.01944 8.95278 5.83333 8.25556 5.83333 7.5C5.83333 6.74444 6.01944 6.04722 6.39167 5.40833C6.76389 4.76944 7.26944 4.26389 7.90833 3.89167C8.54722 3.51944 9.24444 3.33333 10 3.33333H15V1.66667H1.66667V13.3333H15V11.6667ZM15.8333 10V5H10C9.54445 5 9.125 5.11111 8.74167 5.33333C8.35833 5.55556 8.05556 5.85833 7.83333 6.24167C7.61111 6.625 7.5 7.04444 7.5 7.5C7.5 7.95555 7.61111 8.375 7.83333 8.75833C8.05556 9.14167 8.35833 9.44444 8.74167 9.66667C9.125 9.88889 9.54445 10 10 10H15.8333ZM10 6.66667H12.5V8.33333H10V6.66667Z" fill="black"/>
</svg>
