<svg width="153" height="192" viewBox="0 0 153 192" fill="none" xmlns="http://www.w3.org/2000/svg">
<path d="M56.4274 0C71.5772 1.8066e-07 86.5119 3.58551 100.01 10.4634C113.509 17.3412 125.188 27.3162 134.093 39.5726C142.998 51.8291 148.876 66.019 151.245 80.9823C153.615 95.9456 152.41 111.257 147.729 125.666C143.047 140.074 135.022 153.17 124.31 163.882C113.597 174.595 100.501 182.62 86.093 187.301C71.6847 191.983 56.373 193.188 41.4097 190.818C26.4464 188.448 12.2565 182.57 3.81986e-06 173.666L24.8286 139.492C31.6921 144.479 39.6383 147.77 48.0176 149.097C56.3969 150.424 64.9713 149.75 73.0399 147.128C81.1084 144.506 88.4419 140.012 94.4408 134.013C100.44 128.015 104.934 120.681 107.555 112.612C110.177 104.544 110.852 95.9695 109.525 87.5902C108.197 79.2109 104.906 71.2647 99.9194 64.4012C94.9328 57.5377 88.3926 51.9518 80.8335 48.1003C73.2744 44.2487 64.9111 42.2409 56.4274 42.2409V0Z" fill="#57B5E7"/>
</svg>
