<svg width="17" height="17" viewBox="0 0 17 17" fill="none" xmlns="http://www.w3.org/2000/svg">
<path d="M1.70134 13.5971H15.2986V14.9568H1.70134V13.5971ZM3.06107 8.1582H4.42079V12.9172H3.06107V8.1582ZM6.46039 8.1582H7.82012V12.9172H6.46039V8.1582ZM9.17985 8.1582H10.5396V12.9172H9.17985V8.1582ZM12.5792 8.1582H13.9389V12.9172H12.5792V8.1582ZM1.70134 4.75887L8.49998 1.35955L15.2986 4.75887V7.47833H1.70134V4.75887ZM3.06107 5.60191V6.1186H13.9389V5.60191L8.49998 2.88245L3.06107 5.60191ZM8.49998 5.43874C8.30962 5.43874 8.14872 5.37302 8.01728 5.24158C7.88584 5.11014 7.82012 4.94924 7.82012 4.75887C7.82012 4.56851 7.88584 4.40761 8.01728 4.27617C8.14872 4.14473 8.30962 4.07901 8.49998 4.07901C8.69034 4.07901 8.85124 4.14473 8.98269 4.27617C9.11413 4.40761 9.17985 4.56851 9.17985 4.75887C9.17985 4.94924 9.11413 5.11014 8.98269 5.24158C8.85124 5.37302 8.69034 5.43874 8.49998 5.43874Z" fill="#D4AF37"/>
</svg>
