<svg width="48" height="48" viewBox="0 0 48 48" fill="none" xmlns="http://www.w3.org/2000/svg">
<rect width="48" height="48" rx="24" fill="url(#paint0_linear_0_46)"/>
<path d="M31.9167 19.8333H32.75V28.1667H31.9167V30.6667C31.9167 30.9 31.8361 31.0972 31.675 31.2583C31.5139 31.4194 31.3167 31.5 31.0833 31.5H16.0833C15.85 31.5 15.6528 31.4194 15.4917 31.2583C15.3306 31.0972 15.25 30.9 15.25 30.6667V17.3333C15.25 17.1 15.3306 16.9028 15.4917 16.7417C15.6528 16.5806 15.85 16.5 16.0833 16.5H31.0833C31.3167 16.5 31.5139 16.5806 31.675 16.7417C31.8361 16.9028 31.9167 17.1 31.9167 17.3333V19.8333ZM30.25 28.1667H25.25C24.4944 28.1667 23.7972 27.9806 23.1583 27.6083C22.5194 27.2361 22.0139 26.7306 21.6417 26.0917C21.2694 25.4528 21.0833 24.7556 21.0833 24C21.0833 23.2444 21.2694 22.5472 21.6417 21.9083C22.0139 21.2694 22.5194 20.7639 23.1583 20.3917C23.7972 20.0194 24.4944 19.8333 25.25 19.8333H30.25V18.1667H16.9167V29.8333H30.25V28.1667ZM31.0833 26.5V21.5H25.25C24.7944 21.5 24.375 21.6111 23.9917 21.8333C23.6083 22.0556 23.3056 22.3583 23.0833 22.7417C22.8611 23.125 22.75 23.5444 22.75 24C22.75 24.4556 22.8611 24.875 23.0833 25.2583C23.3056 25.6417 23.6083 25.9444 23.9917 26.1667C24.375 26.3889 24.7944 26.5 25.25 26.5H31.0833ZM25.25 23.1667H27.75V24.8333H25.25V23.1667Z" fill="black"/>
<defs>
<linearGradient id="paint0_linear_0_46" x1="0" y1="24" x2="48" y2="24" gradientUnits="userSpaceOnUse">
<stop stop-color="#BF953F"/>
<stop offset="0.25" stop-color="#FCF6BA"/>
<stop offset="0.5" stop-color="#B38728"/>
<stop offset="0.75" stop-color="#FBF5B7"/>
<stop offset="1" stop-color="#AA771C"/>
</linearGradient>
</defs>
</svg>
