<svg width="48" height="48" viewBox="0 0 48 48" fill="none" xmlns="http://www.w3.org/2000/svg">
<rect width="48" height="48" rx="24" fill="url(#paint0_linear_0_82)"/>
<path d="M15.6666 30.6667H32.3333V32.3333H15.6666V30.6667ZM17.3333 24H19V29.8333H17.3333V24ZM21.5 24H23.1666V29.8333H21.5V24ZM24.8333 24H26.5V29.8333H24.8333V24ZM29 24H30.6666V29.8333H29V24ZM15.6666 19.8333L24 15.6667L32.3333 19.8333V23.1667H15.6666V19.8333ZM17.3333 20.8667V21.5H30.6666V20.8667L24 17.5333L17.3333 20.8667ZM24 20.6667C23.7666 20.6667 23.5694 20.5861 23.4083 20.425C23.2472 20.2639 23.1666 20.0667 23.1666 19.8333C23.1666 19.6 23.2472 19.4028 23.4083 19.2417C23.5694 19.0806 23.7666 19 24 19C24.2333 19 24.4305 19.0806 24.5916 19.2417C24.7527 19.4028 24.8333 19.6 24.8333 19.8333C24.8333 20.0667 24.7527 20.2639 24.5916 20.425C24.4305 20.5861 24.2333 20.6667 24 20.6667Z" fill="black"/>
<defs>
<linearGradient id="paint0_linear_0_82" x1="0" y1="24" x2="48" y2="24" gradientUnits="userSpaceOnUse">
<stop stop-color="#BF953F"/>
<stop offset="0.25" stop-color="#FCF6BA"/>
<stop offset="0.5" stop-color="#B38728"/>
<stop offset="0.75" stop-color="#FBF5B7"/>
<stop offset="1" stop-color="#AA771C"/>
</linearGradient>
</defs>
</svg>
