<svg width="17" height="17" viewBox="0 0 17 17" fill="none" xmlns="http://www.w3.org/2000/svg">
<path d="M13.99 10.5499L14.8053 11.0391C14.8868 11.0935 14.9389 11.166 14.9616 11.2566C14.9842 11.3472 14.9729 11.4332 14.9276 11.5148C14.9004 11.5601 14.8597 11.5963 14.8053 11.6235L8.85326 15.1974C8.74455 15.2608 8.62678 15.2925 8.49994 15.2925C8.37311 15.2925 8.25534 15.2608 8.14663 15.1974L2.19459 11.6235C2.11305 11.5782 2.06096 11.5102 2.03831 11.4196C2.01566 11.329 2.02699 11.243 2.07228 11.1614C2.09946 11.1161 2.14023 11.0754 2.19459 11.0391L3.00993 10.5499L8.49994 13.8521L13.99 10.5499ZM13.99 7.35648L14.8053 7.84569C14.8868 7.90005 14.9389 7.97252 14.9616 8.06312C14.9842 8.15371 14.9729 8.23977 14.9276 8.32131C14.9004 8.36661 14.8597 8.40284 14.8053 8.43002L8.49994 12.2214L2.19459 8.43002C2.11305 8.38472 2.06096 8.31678 2.03831 8.22619C2.01566 8.13559 2.02699 8.04953 2.07228 7.96799C2.09946 7.92269 2.14023 7.88193 2.19459 7.84569L3.00993 7.35648L8.49994 10.6586L13.99 7.35648ZM8.85326 1.11907L14.8053 4.69301C14.8868 4.73831 14.9389 4.80625 14.9616 4.89685C14.9842 4.98744 14.9729 5.07351 14.9276 5.15504C14.9004 5.20034 14.8597 5.2411 14.8053 5.27734L8.49994 9.05512L2.19459 5.27734C2.11305 5.22299 2.06096 5.15051 2.03831 5.05992C2.01566 4.96932 2.02699 4.88326 2.07228 4.80172C2.09946 4.75643 2.14023 4.72019 2.19459 4.69301L8.14663 1.11907C8.25534 1.05565 8.37311 1.02394 8.49994 1.02394C8.62678 1.02394 8.74455 1.05565 8.85326 1.11907ZM8.49994 2.49157L4.34167 4.97838L8.49994 7.47878L12.6582 4.97838L8.49994 2.49157Z" fill="#D4AF37"/>
</svg>
