<svg width="246" height="246" viewBox="0 0 246 246" fill="none" xmlns="http://www.w3.org/2000/svg">
<path d="M123 0C148.908 3.08947e-07 174.154 8.18066 195.138 23.3753C216.122 38.5699 231.773 60.0025 239.858 84.6165C247.942 109.231 248.049 135.769 240.161 160.447C232.274 185.125 216.795 206.682 195.933 222.044C175.071 237.406 149.891 245.789 123.985 245.996C98.0776 246.203 72.7667 238.225 51.6616 223.199C30.5565 208.173 14.7349 186.866 6.45334 162.318C-1.82822 137.769 -2.14687 111.232 5.54285 86.4922L57.225 102.556C52.9189 116.41 53.0973 131.271 57.7349 145.017C62.3725 158.764 71.2324 170.696 83.0511 179.11C94.8698 187.525 109.044 191.993 123.551 191.877C138.059 191.761 152.16 187.066 163.842 178.464C175.524 169.861 184.192 157.789 188.609 143.97C193.026 130.15 192.967 115.289 188.439 101.506C183.912 87.722 175.148 75.7199 163.397 67.211C151.646 58.7022 137.508 54.1211 123 54.1211V0Z" fill="#57B5E7"/>
</svg>
