<svg width="32" height="24" viewBox="0 0 32 24" fill="none" xmlns="http://www.w3.org/2000/svg">
<path d="M3.33334 17.3333H16.6667V18.6667H3.33334V17.3333ZM4.66667 12H6V16.6667H4.66667V12ZM8 12H9.33334V16.6667H8V12ZM10.6667 12H12V16.6667H10.6667V12ZM14 12H15.3333V16.6667H14V12ZM3.33334 8.66666L10 5.33332L16.6667 8.66666V11.3333H3.33334V8.66666ZM4.66667 9.49332V9.99999H15.3333V9.49332L10 6.82666L4.66667 9.49332ZM10 9.33332C9.81334 9.33332 9.65556 9.26888 9.52667 9.13999C9.39778 9.0111 9.33334 8.85332 9.33334 8.66666C9.33334 8.47999 9.39778 8.32221 9.52667 8.19332C9.65556 8.06443 9.81334 7.99999 10 7.99999C10.1867 7.99999 10.3444 8.06443 10.4733 8.19332C10.6022 8.32221 10.6667 8.47999 10.6667 8.66666C10.6667 8.85332 10.6022 9.0111 10.4733 9.13999C10.3444 9.26888 10.1867 9.33332 10 9.33332Z" fill="#9CA3AF"/>
</svg>
