<svg width="32" height="24" viewBox="0 0 32 24" fill="none" xmlns="http://www.w3.org/2000/svg">
<path d="M10 18.6667C9.09334 18.6667 8.22667 18.4933 7.4 18.1467C6.60889 17.8089 5.90445 17.3311 5.28667 16.7133C4.66889 16.0956 4.19111 15.3911 3.85334 14.6C3.50667 13.7733 3.33334 12.9067 3.33334 12C3.33334 11.0933 3.50667 10.2267 3.85334 9.4C4.19111 8.60889 4.66889 7.90445 5.28667 7.28667C5.90445 6.66889 6.60889 6.19112 7.4 5.85334C8.22667 5.50667 9.09334 5.33334 10 5.33334C10.9067 5.33334 11.7733 5.50667 12.6 5.85334C13.3911 6.19112 14.0956 6.66889 14.7133 7.28667C15.3311 7.90445 15.8089 8.60889 16.1467 9.4C16.4933 10.2267 16.6667 11.0933 16.6667 12C16.6667 12.9067 16.4933 13.7733 16.1467 14.6C15.8089 15.3911 15.3311 16.0956 14.7133 16.7133C14.0956 17.3311 13.3911 17.8089 12.6 18.1467C11.7733 18.4933 10.9067 18.6667 10 18.6667ZM10 17.3333C10.9689 17.3333 11.8667 17.0889 12.6933 16.6C13.4933 16.1289 14.1289 15.4933 14.6 14.6933C15.0889 13.8667 15.3333 12.9689 15.3333 12C15.3333 11.0311 15.0889 10.1333 14.6 9.30667C14.1289 8.50667 13.4933 7.87112 12.6933 7.4C11.8667 6.91112 10.9689 6.66667 10 6.66667C9.03111 6.66667 8.13334 6.91112 7.30667 7.4C6.50667 7.87112 5.87111 8.50667 5.4 9.30667C4.91111 10.1333 4.66667 11.0311 4.66667 12C4.66667 12.9689 4.91111 13.8667 5.4 14.6933C5.87111 15.4933 6.50667 16.1289 7.30667 16.6C8.13334 17.0889 9.03111 17.3333 10 17.3333ZM10 8.70667L13.2933 12L10 15.2933L6.70667 12L10 8.70667ZM10 10.5867L8.58667 12L10 13.4133L11.4133 12L10 10.5867Z" fill="#9CA3AF"/>
</svg>
