<svg width="32" height="24" viewBox="0 0 32 24" fill="none" xmlns="http://www.w3.org/2000/svg">
<path d="M4.66667 19C4.66667 18.0311 4.91111 17.1333 5.4 16.3067C5.87111 15.5067 6.50667 14.8711 7.30667 14.4C8.13333 13.9111 9.03111 13.6667 10 13.6667C10.9689 13.6667 11.8667 13.9111 12.6933 14.4C13.4933 14.8711 14.1289 15.5067 14.6 16.3067C15.0889 17.1333 15.3333 18.0311 15.3333 19H14C14 18.28 13.8178 17.6089 13.4533 16.9867C13.0978 16.3822 12.6178 15.9022 12.0133 15.5467C11.3911 15.1822 10.72 15 10 15C9.28 15 8.60889 15.1822 7.98667 15.5467C7.38222 15.9022 6.90222 16.3822 6.54667 16.9867C6.18222 17.6089 6 18.28 6 19H4.66667ZM10 13C9.27111 13 8.6 12.8178 7.98667 12.4533C7.38222 12.0978 6.90222 11.6178 6.54667 11.0133C6.18222 10.4 6 9.72889 6 9C6 8.27111 6.18222 7.6 6.54667 6.98667C6.90222 6.38222 7.38222 5.90222 7.98667 5.54667C8.6 5.18222 9.27111 5 10 5C10.7289 5 11.4 5.18222 12.0133 5.54667C12.6178 5.90222 13.0978 6.38222 13.4533 6.98667C13.8178 7.6 14 8.27111 14 9C14 9.72889 13.8178 10.4 13.4533 11.0133C13.0978 11.6178 12.6178 12.0978 12.0133 12.4533C11.4 12.8178 10.7289 13 10 13ZM10 11.6667C10.48 11.6667 10.9244 11.5467 11.3333 11.3067C11.7422 11.0667 12.0667 10.7422 12.3067 10.3333C12.5467 9.92444 12.6667 9.48 12.6667 9C12.6667 8.52 12.5467 8.07555 12.3067 7.66667C12.0667 7.25778 11.7422 6.93333 11.3333 6.69333C10.9244 6.45333 10.48 6.33333 10 6.33333C9.52 6.33333 9.07556 6.45333 8.66667 6.69333C8.25778 6.93333 7.93333 7.25778 7.69333 7.66667C7.45333 8.07555 7.33333 8.52 7.33333 9C7.33333 9.48 7.45333 9.92444 7.69333 10.3333C7.93333 10.7422 8.25778 11.0667 8.66667 11.3067C9.07556 11.5467 9.52 11.6667 10 11.6667Z" fill="#9CA3AF"/>
</svg>
